<?xml version="1.0" standalone="no"?>
<!DOCTYPE svg PUBLIC "-//W3C//DTD SVG 20010904//EN"
 "http://www.w3.org/TR/2001/REC-SVG-20010904/DTD/svg10.dtd">
<svg version="1.0" xmlns="http://www.w3.org/2000/svg"
 width="842.000000pt" height="842.000000pt" viewBox="0 0 842.000000 842.000000"
 preserveAspectRatio="xMidYMid meet">
<metadata>
Created by potrace 1.11, written by Peter Selinger 2001-2013
</metadata>
<g transform="translate(0.000000,842.000000) scale(0.100000,-0.100000)"
fill="#000000" stroke="none">
<path d="M4214 6573 c-16 -15 -28 -33 -26 -40 4 -18 -6 -16 -35 7 -20 15 -29
17 -39 9 -8 -6 -14 -17 -14 -23 0 -6 -10 -16 -22 -21 -16 -7 -25 -22 -29 -48
-7 -46 -15 -54 -38 -40 -22 14 -41 0 -41 -29 0 -10 -4 -18 -9 -18 -5 0 -14
-39 -21 -86 -9 -65 -18 -91 -36 -111 -22 -24 -24 -34 -24 -124 0 -55 -3 -99
-7 -99 -3 0 -14 7 -23 15 -16 15 -18 7 -24 -112 -4 -70 -9 -271 -11 -447 -2
-175 -7 -322 -12 -326 -4 -4 -174 91 -378 211 -203 121 -401 236 -440 255 -38
20 -82 45 -97 55 -14 11 -33 19 -40 19 -8 0 -37 11 -64 25 -45 23 -53 24 -96
14 -30 -7 -48 -16 -48 -25 0 -8 -7 -17 -15 -20 -8 -4 -15 -15 -15 -25 0 -23 1
-23 -39 -3 -29 15 -34 14 -57 -1 -20 -13 -25 -23 -22 -46 3 -21 0 -30 -14 -35
-23 -7 -23 -19 2 -44 11 -11 20 -23 20 -26 0 -4 -24 -3 -53 0 -42 6 -57 4 -66
-8 -7 -8 -10 -20 -6 -27 5 -7 1 -9 -12 -5 -11 4 -28 3 -38 0 -22 -9 -14 -67
13 -98 11 -12 23 -31 26 -43 7 -21 5 -22 -22 -17 -21 4 -31 2 -35 -9 -7 -20
33 -56 146 -130 91 -60 103 -72 88 -82 -10 -6 -44 10 -68 32 -15 13 -47 7 -63
-13 -24 -28 -6 -56 59 -95 34 -22 67 -39 71 -39 4 0 14 -7 21 -17 11 -13 11
-17 2 -20 -24 -8 -13 -22 50 -59 34 -20 89 -57 122 -81 33 -25 94 -64 135 -87
371 -211 475 -278 494 -314 14 -28 14 -29 -42 -88 -31 -32 -80 -72 -107 -88
-75 -44 -343 -225 -351 -237 -3 -5 -60 -46 -127 -90 -67 -45 -133 -91 -147
-104 -14 -13 -56 -43 -95 -68 -109 -71 -128 -89 -127 -123 1 -42 13 -97 24
-111 7 -9 2 -22 -16 -44 -37 -44 -32 -81 12 -94 24 -7 31 -13 26 -27 -8 -26
18 -32 54 -14 53 27 51 -12 -4 -63 -34 -33 -42 -55 -24 -66 5 -3 7 -18 4 -33
-5 -23 -1 -30 21 -40 31 -14 58 -15 71 -3 5 5 21 7 36 4 26 -5 26 -6 12 -29
-9 -13 -13 -28 -9 -34 12 -20 49 -10 126 35 43 25 83 45 90 45 6 0 27 10 46
21 48 30 51 18 4 -15 -48 -34 -56 -52 -36 -82 26 -40 44 -34 171 57 44 33 87
59 95 59 8 0 2 -10 -13 -21 -24 -18 -38 -49 -22 -49 3 0 31 17 62 39 31 21 89
54 127 74 39 19 91 52 115 72 24 20 63 46 86 56 23 11 59 35 80 53 22 18 59
43 84 56 25 12 63 37 86 55 37 31 108 75 119 75 3 0 4 -125 4 -277 -1 -153 -1
-434 -1 -625 2 -305 4 -348 17 -348 9 0 18 7 21 15 13 32 24 1 24 -65 0 -37 3
-75 6 -84 7 -18 39 -22 49 -6 10 16 23 12 30 -9 11 -35 38 -35 67 0 l28 33 6
-33 c6 -28 10 -32 30 -28 17 3 25 -1 30 -15 3 -11 16 -24 29 -30 18 -8 28 -6
52 11 21 16 40 21 73 19 42 -3 44 -2 55 32 20 65 37 90 60 90 13 0 28 6 34 14
10 12 16 10 39 -10 l26 -25 9 23 c4 13 13 45 19 72 6 29 20 58 35 72 14 13 31
46 40 81 8 31 22 71 31 88 19 37 30 301 31 773 1 236 4 322 13 322 6 0 25 -10
42 -23 17 -13 67 -44 111 -69 117 -66 188 -108 256 -151 34 -21 82 -46 107
-56 26 -9 120 -61 208 -113 209 -125 277 -154 259 -110 -17 40 -16 50 2 56 11
3 35 -1 53 -11 18 -9 65 -18 104 -20 60 -4 78 -1 116 19 41 21 45 26 48 66 3
41 4 42 38 42 49 0 54 23 14 65 -38 39 -33 63 8 38 15 -9 44 -27 64 -40 20
-14 47 -23 60 -21 30 4 36 41 9 60 -26 18 -44 66 -36 96 7 28 -32 100 -70 130
-17 13 -25 30 -25 50 0 30 -23 56 -95 108 -27 20 -28 23 -12 38 44 44 6 79
-243 224 -85 49 -218 127 -296 173 -77 46 -179 107 -227 134 -47 28 -86 56
-87 63 0 7 14 21 32 30 17 9 107 67 199 129 92 61 181 119 198 128 17 8 54 36
82 61 28 25 123 93 210 151 132 88 159 110 164 135 4 17 2 35 -4 41 -20 20
-12 44 23 71 67 50 119 181 95 238 -9 21 -18 28 -40 28 -32 0 -35 8 -17 57 17
48 0 63 -47 40 -40 -19 -73 -13 -54 9 6 8 17 14 24 14 22 0 115 81 115 100 0
23 -33 35 -59 21 -28 -15 -88 -14 -98 2 -14 23 -39 26 -110 11 -37 -8 -82 -11
-100 -8 -24 5 -49 -2 -100 -26 -37 -17 -76 -38 -85 -47 -26 -23 -31 -11 -11
25 14 24 15 34 6 43 -22 22 -90 -17 -453 -257 -195 -129 -358 -233 -363 -232
-4 2 -9 203 -11 448 -5 533 -12 680 -32 680 -17 0 -34 -40 -34 -81 0 -18 -4
-28 -10 -24 -5 3 -10 24 -10 46 0 33 -6 47 -35 75 -35 33 -35 35 -35 120 0 91
-10 114 -49 114 -16 0 -21 -6 -21 -24 0 -54 -10 -58 -48 -20 -20 20 -46 43
-57 50 -12 8 -32 34 -44 59 -12 24 -26 47 -30 50 -5 2 -21 -7 -37 -22z m-12
-323 c9 -14 24 -20 50 -20 21 0 38 -4 38 -10 0 -5 6 -7 13 -4 9 3 16 -13 24
-51 7 -32 23 -69 38 -87 14 -17 29 -43 32 -59 5 -26 33 -50 33 -29 0 6 5 10
10 10 6 0 11 -32 11 -72 1 -40 4 -62 6 -48 12 73 19 36 23 -133 3 -103 9 -187
14 -186 5 0 13 -5 17 -13 12 -18 11 -222 -1 -234 -9 -9 -16 -531 -6 -541 2 -3
139 83 303 190 586 382 557 366 606 354 30 -6 55 -6 87 4 50 14 82 15 124 4
15 -4 42 -3 60 2 29 9 36 7 71 -24 21 -18 49 -33 62 -33 27 0 29 -8 6 -26 -17
-12 -17 -14 1 -27 26 -19 17 -29 -74 -88 -55 -35 -86 -63 -102 -90 -18 -32
-63 -66 -247 -186 -576 -375 -751 -493 -751 -507 0 -8 30 -33 68 -54 101 -59
419 -242 677 -392 127 -73 238 -139 247 -147 9 -8 20 -28 23 -43 3 -15 28 -56
55 -91 31 -39 50 -74 50 -90 0 -15 10 -39 22 -54 18 -23 22 -41 22 -107 1 -43
0 -78 -2 -78 -1 0 -14 8 -29 17 -25 17 -25 17 -19 -5 13 -40 -20 -36 -104 13
-45 25 -87 44 -93 42 -30 -11 -164 57 -567 290 -504 290 -480 277 -488 268 -4
-4 -9 -258 -12 -565 l-5 -558 -29 -29 c-17 -17 -37 -55 -48 -91 -10 -34 -23
-62 -28 -62 -6 0 -10 -6 -10 -13 0 -7 -13 -23 -29 -35 -17 -12 -32 -35 -37
-57 -8 -32 -15 -39 -58 -56 -28 -10 -60 -31 -73 -46 l-22 -28 -1 38 c0 35 -2
37 -20 27 -11 -6 -24 -9 -29 -6 -17 11 -31 96 -31 183 0 58 -5 98 -15 117 -13
25 -15 213 -15 1500 1 1133 4 1483 13 1524 7 29 16 50 20 46 4 -4 7 89 7 206
0 206 1 215 22 237 27 29 73 31 90 3z"/>
</g>
</svg>
